<?xml version="1.0" encoding="utf-8"?>
<!-- Generator: Adobe Illustrator 16.0.0, SVG Export Plug-In . SVG Version: 6.00 Build 0)  -->
<!DOCTYPE svg PUBLIC "-//W3C//DTD SVG 1.1//EN" "http://www.w3.org/Graphics/SVG/1.1/DTD/svg11.dtd">
<svg version="1.1" id="Layer_1" xmlns="http://www.w3.org/2000/svg" xmlns:xlink="http://www.w3.org/1999/xlink" x="0px" y="0px"
	 width="92.555px" height="20.099px" viewBox="0 0 92.555 20.099" enable-background="new 0 0 92.555 20.099" xml:space="preserve">
<path fill="#FFFFFF" d="M38.569,6.602V0.094h0.697v5.994h3.278v0.515H38.569z"/>
<path fill="#FFFFFF" d="M43.096,3.296c0-1.526,0.228-2.491,1.108-2.959C44.626,0.112,45.198,0,45.974,0
	c2.376,0,2.868,1.04,2.868,3.296c0,1.592-0.241,2.622-1.211,3.1c-0.411,0.196-0.948,0.3-1.656,0.3
	C43.598,6.696,43.096,5.563,43.096,3.296z M47.094,6.003c0.879-0.347,1.017-1.236,1.017-2.707c0-1.948-0.24-2.772-2.136-2.772
	c-0.457,0-0.811,0.038-1.096,0.141c-0.914,0.309-1.051,1.143-1.051,2.631c0,1.948,0.24,2.875,2.147,2.875
	C46.442,6.171,46.796,6.125,47.094,6.003z"/>
<path fill="#FFFFFF" d="M50.41,0.094h1.302l3.095,5.938h0.218V0.094h0.685v6.508h-1.291l-3.095-5.937h-0.217v5.937H50.41V0.094z"/>
<path fill="#FFFFFF" d="M60.431,3.269h2.022v3.212c0,0-1.519,0.215-2.375,0.215c-2.204,0-2.833-1.517-2.833-3.343
	C57.244,1.358,57.77,0,60.1,0c1.188,0,2.353,0.244,2.353,0.244l-0.045,0.468c0,0-1.302-0.197-2.261-0.197
	c-1.942,0-2.171,1.217-2.171,2.838c0,1.489,0.422,2.828,2.159,2.828c0.64,0,1.622-0.15,1.622-0.15V3.765h-1.325V3.269z"/>
<path fill="#FFFFFF" d="M66.616,0.094h4.387v0.515h-3.69v2.716h3.05V3.83h-3.05v2.772h-0.696V0.094z"/>
<path fill="#FFFFFF" d="M71.77,3.296c0-1.526,0.229-2.491,1.109-2.959C73.301,0.112,73.873,0,74.649,0
	c2.376,0,2.866,1.04,2.866,3.296c0,1.592-0.238,2.622-1.21,3.1c-0.411,0.196-0.948,0.3-1.656,0.3
	C72.273,6.696,71.77,5.563,71.77,3.296z M75.768,6.003c0.88-0.347,1.017-1.236,1.017-2.707c0-1.948-0.239-2.772-2.136-2.772
	c-0.457,0-0.811,0.038-1.097,0.141c-0.913,0.309-1.051,1.143-1.051,2.631c0,1.948,0.24,2.875,2.147,2.875
	C75.117,6.171,75.471,6.125,75.768,6.003z"/>
<path fill="#FFFFFF" d="M81.917,4.037h-2.135v2.565h-0.698V0.094h2.594c1.542,0,2.33,0.627,2.33,1.938
	c0,1.217-0.616,1.686-1.394,1.901l1.587,2.668h-0.764L81.917,4.037z M81.677,0.6h-1.896v2.931h1.896c1.108,0,1.6-0.506,1.6-1.499
	C83.277,1.087,82.786,0.6,81.677,0.6z"/>
<path fill="#FFFFFF" d="M85.553,0.094h1.268l2.239,5.75l2.228-5.75h1.268v6.508h-0.674V0.609h-0.148l-2.238,5.778h-0.88
	l-2.239-5.778h-0.148v5.993h-0.674V0.094z"/>
<path fill="#FFFFFF" d="M38.569,19.916V7.341h4.18c3.148,0,4.216,1.863,4.216,6.08c0,4.306-0.959,6.495-4.216,6.495H38.569z
	 M42.749,8.354h-3.076V18.92h3.076c2.442,0,3.058-2.044,3.058-5.5C45.807,9.982,45.191,8.354,42.749,8.354z"/>
<path fill="#FFFFFF" d="M49.979,7.341h1.104v12.575h-1.104V7.341z"/>
<path fill="#FFFFFF" d="M58.573,13.475h3.202v6.205c0,0-2.406,0.417-3.763,0.417c-3.492,0-4.487-2.932-4.487-6.46
	c0-3.853,0.832-6.478,4.522-6.478c1.882,0,3.728,0.471,3.728,0.471l-0.072,0.905c0,0-2.063-0.38-3.583-0.38
	c-3.075,0-3.438,2.352-3.438,5.482c0,2.877,0.67,5.465,3.42,5.465c1.013,0,2.57-0.29,2.57-0.29v-4.379h-2.099V13.475z"/>
<path fill="#FFFFFF" d="M64.383,7.341h1.104v12.575h-1.104V7.341z"/>
<path fill="#FFFFFF" d="M67.17,7.341h8.123v0.995H71.82v11.58h-1.104V8.336H67.17V7.341z"/>
<path fill="#FFFFFF" d="M78.57,7.341h2.315l3.401,12.575h-1.122l-0.959-3.455h-4.957l-0.978,3.455H75.15L78.57,7.341z
	 M77.465,15.483h4.487l-1.937-7.129h-0.597L77.465,15.483z"/>
<path fill="#FFFFFF" d="M86.258,19.916V7.341h1.104v11.58h5.192v0.995H86.258z"/>
<g>
	<path fill="#FFFFFF" d="M33.556,0.099H2c-1.1,0-2,0.9-2,2v16c0,1.1,0.9,2,2,2h25.556v-2H3.775C2.798,18.099,2,17.378,2,16.499
		v-12.8c0-0.88,0.798-1.6,1.775-1.6H31.78c0.977,0,1.775,0.72,1.775,1.6v12.8c0,0.88-0.798,1.601-1.775,1.601h-2.225l-2,2h6
		c1.1,0,2-0.9,2-2v-16C35.556,0.999,34.656,0.099,33.556,0.099z"/>
</g>
</svg>
